<svg width="32" height="32" viewBox="0 0 32 32" fill="none" xmlns="http://www.w3.org/2000/svg">
<path d="M4.0957 20.2295C4.88437 20.2297 5.52333 20.8694 5.52344 21.6582V24.4756C5.52354 25.578 6.42205 26.4765 7.52441 26.4766H10.3418C11.1305 26.4767 11.7702 27.1156 11.7705 27.9043C11.7705 28.6932 11.1306 29.3329 10.3418 29.333H7.52441C4.84521 29.3329 2.6671 27.1548 2.66699 24.4756V21.6582C2.6671 20.8693 3.30684 20.2295 4.0957 20.2295ZM27.9053 20.2295C28.694 20.2298 29.3329 20.8695 29.333 21.6582V24.4756C29.3329 27.1548 27.1548 29.3329 24.4756 29.333H21.6582C20.8693 29.3329 20.2295 28.6932 20.2295 27.9043C20.2297 27.1156 20.8695 26.4767 21.6582 26.4766H24.4756C25.578 26.4765 26.4765 25.578 26.4766 24.4756V21.6582C26.4767 20.8693 27.1164 20.2295 27.9053 20.2295ZM10.3418 2.66699C11.1307 2.66712 11.7705 3.30683 11.7705 4.0957C11.7703 4.88438 11.1305 5.52331 10.3418 5.52344H7.52441C6.42204 5.52354 5.52354 6.42202 5.52344 7.52441V10.3418C5.52331 11.1305 4.88438 11.7703 4.0957 11.7705C3.30683 11.7705 2.66712 11.1307 2.66699 10.3418V7.52441C2.66709 4.84518 4.84521 2.66709 7.52441 2.66699H10.3418ZM24.4756 2.66699C27.1548 2.66709 29.3329 4.84518 29.333 7.52441V10.3418C29.3329 11.1305 28.694 11.7702 27.9053 11.7705C27.1163 11.7705 26.4767 11.1306 26.4766 10.3418V7.52441C26.4765 6.42203 25.578 5.52354 24.4756 5.52344H21.6582C20.8695 5.52332 20.2297 4.88437 20.2295 4.0957C20.2295 3.30684 20.8693 2.66711 21.6582 2.66699H24.4756Z" fill="white"/>
<path d="M10.6374 10.7336C10.1842 10.7336 9.81689 11.1009 9.81689 11.5541V13.5345C9.81689 13.9877 10.1842 14.355 10.6374 14.355C11.0905 14.355 11.4578 13.9877 11.4578 13.5345V11.5541C11.4578 11.1009 11.0905 10.7336 10.6374 10.7336Z" fill="white"/>
<path d="M15.8354 11.5926C15.8354 11.1182 16.2201 10.7336 16.6944 10.7336C17.1689 10.7336 17.5535 11.1182 17.5535 11.5926V16.531C17.5535 17.6004 16.6837 18.4702 15.6142 18.4702H15.0483C14.5739 18.4702 14.1893 18.0857 14.1893 17.6112C14.1893 17.1367 14.5739 16.7521 15.0483 16.7521H15.6142C15.736 16.7521 15.8354 16.6528 15.8354 16.531V11.5926Z" fill="white"/>
<path d="M21.5171 10.7336C21.0639 10.7336 20.6965 11.1009 20.6965 11.5541V13.5345C20.6965 13.9877 21.0639 14.355 21.5171 14.355C21.9701 14.355 22.3375 13.9877 22.3375 13.5345V11.5541C22.3375 11.1009 21.9701 10.7336 21.5171 10.7336Z" fill="white"/>
<path d="M19.5609 19.9895C19.9095 19.6675 20.453 19.6891 20.7748 20.0375C21.0968 20.3861 21.0752 20.9296 20.7267 21.2515C19.4363 22.4433 17.7576 23.0998 16.0001 23.0998C14.2426 23.0998 12.5638 22.4433 11.2734 21.2515C10.9249 20.9296 10.9034 20.3861 11.2253 20.0375C11.5473 19.6891 12.0907 19.6675 12.4392 19.9895C13.4113 20.8873 14.6757 21.3818 16.0001 21.3818C17.3245 21.3818 18.5889 20.8873 19.5609 19.9895Z" fill="white"/>
<path d="M10.6374 10.7336C10.1842 10.7336 9.81689 11.1009 9.81689 11.5541V13.5345C9.81689 13.9877 10.1842 14.355 10.6374 14.355C11.0905 14.355 11.4578 13.9877 11.4578 13.5345V11.5541C11.4578 11.1009 11.0905 10.7336 10.6374 10.7336Z" stroke="white" stroke-width="0.4"/>
<path d="M15.8354 11.5926C15.8354 11.1182 16.2201 10.7336 16.6944 10.7336C17.1689 10.7336 17.5535 11.1182 17.5535 11.5926V16.531C17.5535 17.6004 16.6837 18.4702 15.6142 18.4702H15.0483C14.5739 18.4702 14.1893 18.0857 14.1893 17.6112C14.1893 17.1367 14.5739 16.7521 15.0483 16.7521H15.6142C15.736 16.7521 15.8354 16.6528 15.8354 16.531V11.5926Z" stroke="white" stroke-width="0.4"/>
<path d="M21.5171 10.7336C21.0639 10.7336 20.6965 11.1009 20.6965 11.5541V13.5345C20.6965 13.9877 21.0639 14.355 21.5171 14.355C21.9701 14.355 22.3375 13.9877 22.3375 13.5345V11.5541C22.3375 11.1009 21.9701 10.7336 21.5171 10.7336Z" stroke="white" stroke-width="0.4"/>
<path d="M19.5609 19.9895C19.9095 19.6675 20.453 19.6891 20.7748 20.0375C21.0968 20.3861 21.0752 20.9296 20.7267 21.2515C19.4363 22.4433 17.7576 23.0998 16.0001 23.0998C14.2426 23.0998 12.5638 22.4433 11.2734 21.2515C10.9249 20.9296 10.9034 20.3861 11.2253 20.0375C11.5473 19.6891 12.0907 19.6675 12.4392 19.9895C13.4113 20.8873 14.6757 21.3818 16.0001 21.3818C17.3245 21.3818 18.5889 20.8873 19.5609 19.9895Z" stroke="white" stroke-width="0.4"/>
</svg>
