<svg width="16" height="18" viewBox="0 0 16 18" fill="none" xmlns="http://www.w3.org/2000/svg">
<path fill-rule="evenodd" clip-rule="evenodd" d="M0 7.48598C0 3.3461 3.61777 0 7.99383 0C12.3822 0 16 3.3461 16 7.48598C16 9.57212 15.2066 11.5089 13.9007 13.1504C12.4601 14.9612 10.6844 16.5388 8.68569 17.7772C8.22825 18.0634 7.81541 18.085 7.31336 17.7772C5.30328 16.5388 3.52761 14.9612 2.09929 13.1504C0.792455 11.5089 0 9.57212 0 7.48598ZM5.3584 7.71921C5.3584 9.10607 6.54186 10.1968 7.99296 10.1968C9.445 10.1968 10.6399 9.10607 10.6399 7.71921C10.6399 6.34315 9.445 5.19928 7.99296 5.19928C6.54186 5.19928 5.3584 6.34315 5.3584 7.71921Z" fill="#4C545F"/>
</svg>
