<svg width="50" height="35" viewBox="0 0 50 35" fill="none" xmlns="http://www.w3.org/2000/svg">
<path d="M18.1094 2.88074H31.5314V24.0565H18.1094V2.88074Z" fill="#FF5F00"/>
<path d="M9.03309 34.7151V32.4704C9.03309 31.6097 8.43643 31.0487 7.41372 31.0487C6.90246 31.0487 6.3485 31.1983 5.96496 31.6847C5.66682 31.2731 5.24077 31.0487 4.6016 31.0487C4.17536 31.0487 3.7495 31.1608 3.40847 31.5724V31.1235H2.51367V34.7151H3.40847V32.7321C3.40847 32.0963 3.79201 31.7968 4.38868 31.7968C4.98495 31.7968 5.28347 32.1336 5.28347 32.7321V34.7151H6.17827V32.7321C6.17827 32.0963 6.60413 31.7968 7.15809 31.7968C7.75475 31.7968 8.05289 32.1336 8.05289 32.7321V34.7151H9.03309ZM22.2845 31.1235H20.8359V30.0385H19.9411V31.1235H19.1315V31.8342H19.9409V33.4805C19.9409 34.3037 20.3245 34.7899 21.3472 34.7899C21.7307 34.7899 22.1566 34.6777 22.4551 34.5281L22.1993 33.8546C21.9436 34.0042 21.6455 34.0417 21.4324 34.0417C21.0063 34.0417 20.8359 33.8173 20.8359 33.443V31.8342H22.2845V31.1235ZM29.8691 31.0485C29.3579 31.0485 29.017 31.2731 28.8039 31.5724V31.1235H27.9091V34.7151H28.8039V32.6948C28.8039 32.0963 29.102 31.7595 29.656 31.7595C29.8264 31.7595 30.0395 31.797 30.21 31.8343L30.4656 31.0862C30.2952 31.0487 30.0395 31.0487 29.8691 31.0487V31.0485ZM18.4071 31.4228C17.9809 31.1608 17.3844 31.0487 16.7453 31.0487C15.7227 31.0487 15.0411 31.4976 15.0411 32.2084C15.0411 32.8071 15.5523 33.1437 16.4471 33.256L16.8732 33.2935C17.3419 33.3682 17.5976 33.4805 17.5976 33.6676C17.5976 33.9294 17.2567 34.1165 16.66 34.1165C16.0636 34.1165 15.5948 33.9294 15.2965 33.7424L14.8704 34.341C15.3392 34.6402 15.9784 34.7899 16.6173 34.7899C17.8105 34.7899 18.4924 34.3037 18.4924 33.6301C18.4924 32.9941 17.9384 32.6573 17.0861 32.5452L16.66 32.5077C16.2765 32.4702 15.9784 32.3956 15.9784 32.1711C15.9784 31.9092 16.2765 31.7595 16.7453 31.7595C17.2567 31.7595 17.768 31.9465 18.0236 32.0588L18.4071 31.4228ZM42.1834 31.0487C41.6719 31.0487 41.3311 31.2731 41.118 31.5724V31.1235H40.2232V34.7151H41.118V32.6948C41.118 32.0963 41.4163 31.7595 41.9701 31.7595C42.1407 31.7595 42.3538 31.797 42.5242 31.8343L42.7799 31.0862C42.6094 31.0487 42.3538 31.0487 42.1834 31.0487ZM30.7639 32.9193C30.7639 34.0042 31.616 34.7899 32.9371 34.7899C33.5335 34.7899 33.9596 34.6777 34.3856 34.3785L33.9596 33.7424C33.6187 33.9669 33.2779 34.079 32.8944 34.079C32.17 34.079 31.6587 33.6301 31.6587 32.9193C31.6587 32.2459 32.17 31.7968 32.8944 31.7595C33.2779 31.7595 33.6187 31.8717 33.9596 32.0963L34.3856 31.4602C33.9596 31.1608 33.5335 31.0487 32.9371 31.0487C31.616 31.0487 30.7639 31.8343 30.7639 32.9193ZM39.0302 32.9193V31.1235H38.1354V31.5724C37.8371 31.2358 37.4111 31.0487 36.8571 31.0487C35.7067 31.0487 34.8119 31.8343 34.8119 32.9193C34.8119 34.0042 35.7067 34.7899 36.8571 34.7899C37.4536 34.7899 37.8798 34.6029 38.1354 34.2662V34.7151H39.0302V32.9193ZM35.7492 32.9193C35.7492 32.2832 36.2179 31.7595 36.9848 31.7595C37.7092 31.7595 38.2206 32.2459 38.2206 32.9193C38.2206 33.5553 37.7092 34.079 36.9848 34.079C36.2179 34.0415 35.7492 33.5553 35.7492 32.9193ZM25.0543 31.0487C23.8611 31.0487 23.0089 31.7968 23.0089 32.9193C23.0089 34.0417 23.861 34.7899 25.0968 34.7899C25.6933 34.7899 26.2899 34.6402 26.7587 34.3037L26.3324 33.7424C25.9916 33.9669 25.5655 34.1165 25.1395 34.1165C24.5855 34.1165 24.0316 33.8921 23.9037 33.2559H26.9291V32.9568C26.9718 31.7968 26.2047 31.0487 25.0541 31.0487H25.0543ZM25.0543 31.722C25.608 31.722 25.9918 32.0215 26.0768 32.5827H23.9464C24.0316 32.0963 24.4151 31.722 25.0543 31.722ZM47.2539 32.9193V29.7018H46.3591V31.5724C46.0607 31.2358 45.6347 31.0487 45.0807 31.0487C43.9303 31.0487 43.0355 31.8343 43.0355 32.9193C43.0355 34.0042 43.9303 34.7899 45.0807 34.7899C45.6774 34.7899 46.1034 34.6029 46.3591 34.2662V34.7151H47.2539V32.9193ZM43.973 32.9193C43.973 32.2832 44.4415 31.7595 45.2086 31.7595C45.933 31.7595 46.4443 32.2459 46.4443 32.9193C46.4443 33.5553 45.933 34.079 45.2086 34.079C44.4415 34.0415 43.973 33.5553 43.973 32.9193ZM14.0609 32.9193V31.1235H13.1661V31.5724C12.8677 31.2358 12.4417 31.0487 11.8877 31.0487C10.7373 31.0487 9.84249 31.8343 9.84249 32.9193C9.84249 34.0042 10.7373 34.7899 11.8877 34.7899C12.4844 34.7899 12.9104 34.6029 13.1661 34.2662V34.7151H14.0609V32.9193ZM10.7373 32.9193C10.7373 32.2832 11.206 31.7595 11.9729 31.7595C12.6973 31.7595 13.2088 32.2459 13.2088 32.9193C13.2088 33.5553 12.6973 34.079 11.9729 34.079C11.206 34.0415 10.7373 33.5553 10.7373 32.9193Z" fill="white"/>
<path d="M18.9614 13.4687C18.9614 9.16625 21.2623 5.35005 24.7988 2.88073C22.1998 1.08494 18.9189 0 15.3397 0C6.86007 0 0 6.0234 0 13.4687C0 20.9138 6.86007 26.9374 15.3395 26.9374C18.9187 26.9374 22.1996 25.8524 24.7988 24.0565C21.2623 21.6246 18.9614 17.7711 18.9614 13.4687Z" fill="#EB001B"/>
<path d="M49.6406 13.4687C49.6406 20.9138 42.7805 26.9374 34.3011 26.9374C30.7219 26.9374 27.441 25.8524 24.8418 24.0565C28.421 21.5873 30.6793 17.7711 30.6793 13.4687C30.6793 9.16625 28.3783 5.35005 24.8418 2.88073C27.4408 1.08494 30.7219 0 34.3011 0C42.7805 0 49.6408 6.0609 49.6408 13.4687H49.6406Z" fill="#F79E1B"/>
</svg>
