<svg width="25" height="25" viewBox="0 0 25 25" fill="none" xmlns="http://www.w3.org/2000/svg">
<g clip-path="url(#clip0_1171_12080)">
<path d="M7.18084 12.2542C7.18483 12.5194 7.08331 12.7753 6.89861 12.9656C6.71392 13.156 6.46118 13.2651 6.19599 13.2691C5.9308 13.2731 5.67489 13.1716 5.48456 12.9869C5.29422 12.8022 5.18506 12.5494 5.18107 12.2843C5.17708 12.0191 5.27861 11.7632 5.4633 11.5728C5.648 11.3825 5.90074 11.2733 6.16593 11.2693C6.43111 11.2653 6.68702 11.3669 6.87736 11.5516C7.06769 11.7363 7.17686 11.989 7.18084 12.2542ZM11.1804 12.1941C11.2011 13.5739 10.66 14.8342 9.76971 15.7517C9.58491 15.9421 9.33203 16.0513 9.06669 16.0553C8.80136 16.0593 8.54531 15.9577 8.35487 15.7729C8.16443 15.5881 8.0552 15.3353 8.05121 15.0699C8.04722 14.8046 8.1488 14.5485 8.3336 14.3581C8.60852 14.0758 8.82488 13.742 8.97025 13.3757C9.11562 13.0095 9.18711 12.6181 9.18062 12.2241C9.16816 11.3952 8.82195 10.6523 8.26984 10.1166C8.0794 9.93178 7.97017 9.6789 7.96618 9.41357C7.96219 9.14823 8.06377 8.89218 8.24857 8.70174C8.43337 8.5113 8.68625 8.40207 8.95158 8.39808C9.21692 8.3941 9.47297 8.49567 9.66341 8.68047C10.1352 9.13739 10.512 9.683 10.7724 10.286C11.0327 10.8889 11.1714 11.5374 11.1804 12.1941ZM15.1799 12.1339C15.1991 13.3159 14.9845 14.49 14.5487 15.5888C14.1128 16.6876 13.4641 17.6894 12.6399 18.5368C12.4541 18.7218 12.203 18.8264 11.9408 18.8281C11.6786 18.8297 11.4262 18.7283 11.2381 18.5457C11.0499 18.3631 10.941 18.1139 10.9347 17.8518C10.9285 17.5897 11.0255 17.3356 11.2048 17.1443C11.8461 16.4853 12.3507 15.7061 12.6897 14.8514C13.0287 13.9967 13.1954 13.0834 13.1802 12.164C13.1678 11.2446 12.9737 10.3367 12.6092 9.4926C12.2446 8.64848 11.7168 7.88476 11.056 7.24538C10.871 7.05954 10.7664 6.80848 10.7648 6.54627C10.7631 6.28407 10.8645 6.03171 11.0471 5.84353C11.2297 5.65536 11.4789 5.54643 11.741 5.54021C12.0032 5.53399 12.2573 5.63098 12.4486 5.81028C13.2979 6.63252 13.9764 7.61444 14.4451 8.69964C14.9138 9.78484 15.1635 10.952 15.1799 12.1339ZM19.1795 12.0738C19.2335 15.6634 17.8265 18.9349 15.5101 21.322C15.3242 21.507 15.0732 21.6116 14.811 21.6132C14.5488 21.6149 14.2964 21.5135 14.1082 21.3309C13.9201 21.1483 13.8111 20.8991 13.8049 20.637C13.7987 20.3748 13.8957 20.1207 14.075 19.9294C15.0827 18.894 15.8757 17.6696 16.4086 16.3266C16.9414 14.9836 17.2035 13.5485 17.1797 12.1039C17.1601 10.6592 16.8551 9.23257 16.2821 7.90619C15.7092 6.5798 14.8796 5.37979 13.8412 4.37519C13.6562 4.18935 13.5516 3.93829 13.5499 3.67608C13.5483 3.41388 13.6497 3.16152 13.8323 2.97334C14.0149 2.78517 14.2641 2.67624 14.5262 2.67002C14.7883 2.6638 15.0424 2.76079 15.2338 2.94009C16.4606 4.12762 17.4408 5.54584 18.1179 7.11329C18.795 8.68074 19.1558 10.3665 19.1795 12.0738Z" fill="white"/>
</g>
<defs>
<clipPath id="clip0_1171_12080">
<rect width="24" height="24" fill="white" transform="translate(23.998) rotate(89.1387)"/>
</clipPath>
</defs>
</svg>
