<svg width="30" height="30" viewBox="0 0 30 30" fill="none" xmlns="http://www.w3.org/2000/svg">
<g clip-path="url(#clip0_899_10834)">
<mask id="mask0_899_10834" style="mask-type:luminance" maskUnits="userSpaceOnUse" x="0" y="0" width="30" height="30">
<path d="M0 0H30V30H0V0Z" fill="white"/>
</mask>
<g mask="url(#mask0_899_10834)">
<path fill-rule="evenodd" clip-rule="evenodd" d="M3.04211 8.26733L3.09456 8.06931L3.147 7.82178L5.4547 0L30.0002 0.049505L2.88477 20.8911L15.2624 6.78218H5.97917L5.4547 6.83168C4.3533 6.88119 3.35679 7.52475 3.04211 8.26733Z" fill="#808285"/>
<path fill-rule="evenodd" clip-rule="evenodd" d="M28.6881 14.3069C28.6881 14.2079 27.9014 18.7129 26.5902 23.3663L0.943359 23.5148L28.6357 2.37622L16.2056 16.5841H25.5413L26.0657 16.5346C27.1671 16.4851 28.321 15.0495 28.6881 14.3069Z" fill="#ED1C24"/>
<path fill-rule="evenodd" clip-rule="evenodd" d="M4.35315 30.0001H0L2.98951 26.1387H0.996503L1.15385 25.0496H5.2972L2.30769 28.9109H4.51049L4.35315 30.0001ZM5.19231 30.0001L5.87413 25.0496H8.86364L8.70629 26.1387H7.02797L6.92308 26.9803H8.4965L8.39161 28.0694H6.76573L6.66084 28.9109H8.33916L8.18182 30.0001H5.19231ZM9.07343 30.0001L9.75524 25.0496H11.0664L12.5874 27.6238L12.6923 27.9208L12.9021 28.4654C12.9052 28.1513 12.9227 27.8375 12.9545 27.5248L13.2692 25.0496H14.5804L13.8986 30.0001H12.6399L11.1189 27.4753L10.9615 27.1288L10.7517 26.5842C10.7491 26.9148 10.7316 27.2451 10.6993 27.5743L10.3846 30.0001H9.07343ZM15 30.0001L15.6818 25.0496H17.0455L16.3636 30.0001H15ZM18.1469 30.0001L18.6713 26.2377H17.5699L17.7273 25.0496H21.2937L21.1364 26.2377H20.035L19.5105 30.0001H18.1469ZM21.2413 30.0001L21.9231 25.0496H23.2867L23.0245 26.9803H24.8077L25.0699 25.0496H26.4336L25.7517 30.0001H24.3881L24.6503 27.9704H22.8671L22.6049 30.0001H21.2413Z" fill="#808285"/>
</g>
</g>
<defs>
<clipPath id="clip0_899_10834">
<rect width="30" height="30" fill="white"/>
</clipPath>
</defs>
</svg>
